# Wavefront OBJ file
# Exported by Misfit Model 3D 1.3.8
# Tue Mar 31 10:14:15 2015

mtllib medbuilding1.mtl

# 70 Vertices
v 7.777344 11.34375 -0.000032
v 5.785156 12.671875 -0.000032
v 5.5 11.890625 -0.000032
v 5.726563 11.679688 -0.000032
v 7.171875 10.921875 -0.000032
v 7.511719 10.773438 -0.000032
v -0.012871 3.068359 -0.000031
v -6.582031 3.078125 -0.000031
v -6.542969 0.000031 -0.000031
v -0.000031 0.000031 -0.000031
v 7.492188 3.078125 -0.000031
v 7.625 3.306641 -0.000031
v 7.664063 6.34375 -0.000032
v -0.028763 6.859375 -0.000032
v 6.753906 3.058594 -0.000031
v -3.789063 12.078125 -0.000032
v -8.25 6.441406 -0.000032
v -8.117188 6.269531 -0.000032
v -7.511719 6.25 -0.000032
v -3.580078 12.078125 -0.000032
v 6.773438 0.000031 -0.000031
v -7.511719 3.324219 -0.000031
v -7.339844 3.0625 -0.000031
v 8.382813 6.382813 -0.000032
v 8.484375 6.59375 -0.000032
v 6.488281 9.234375 -0.000032
v 5.269531 10.640625 -0.000032
v 3.921875 12.078125 -0.000032
v 3.619141 12.078125 -0.000032
v -6.542969 0.000031 -0.426025
v -0.000031 0.000031 -0.426025
v 6.773438 0.000031 -0.426025
v 6.753906 3.058594 -0.426025
v 7.492188 3.078125 -0.426025
v 7.625 3.306641 -0.426025
v 7.664063 6.34375 -0.426026
v 8.382813 6.382813 -0.426026
v 8.484375 6.59375 -0.426026
v 6.488281 9.234375 -0.426026
v 7.171875 10.921875 -0.426026
v 7.511719 10.773438 -0.426026
v 7.777344 11.34375 -0.426026
v 5.785156 12.671875 -0.426026
v 5.5 11.890625 -0.426026
v 5.726563 11.679688 -0.426026
v 5.269531 10.640625 -0.426026
v 3.921875 12.078125 -0.426026
v 3.619141 12.078125 -0.426026
v -0.028763 6.859375 -0.426026
v -3.580078 12.078125 -0.426026
v -3.789063 12.078125 -0.426026
v -8.25 6.441406 -0.426026
v -8.117188 6.269531 -0.426026
v -7.511719 6.25 -0.426026
v -7.511719 3.324219 -0.426025
v -7.339844 3.0625 -0.426025
v -6.582031 3.078125 -0.426025
v 5.207031 0.000031 -0.426025
v 5.207031 0.000031 -4.046875
v 5.207031 3.265625 -0.426025
v 4.785156 0.000031 -0.426025
v 4.785156 3.265625 -0.426025
v 4.785156 0.000031 -4.046875
v -3.833984 0.000031 -0.426025
v -3.833984 0.000031 -4.046875
v -3.833984 3.265625 -0.426025
v -4.257813 0.000031 -0.426025
v -4.257813 3.265625 -0.426025
v -4.257813 0.000031 -4.046875
v -0.012871 3.068359 -0.426025

# 372 Texture Coordinates
vt 0.188232 0.956146
vt 0.004456 0.956146
vt 0.188232 0.790283
vt 0.081787 0.95993
vt 0.081787 0.794067
vt 0.265625 0.95993
vt 0.188232 0.956146
vt 0.004456 0.956146
vt 0.188232 0.790283
vt 0.081787 0.95993
vt 0.081787 0.794067
vt 0.265625 0.95993
vt 0.941895 0.842041
vt 0.82666 0.939636
vt 0.810059 0.882507
vt 0.941895 0.842041
vt 0.906738 0.811401
vt 0.926758 0.800293
vt 0.941895 0.842041
vt 0.810059 0.882507
vt 0.906738 0.811401
vt 0.810059 0.882507
vt 0.823242 0.867187
vt 0.906738 0.811401
vt 0.867188 0.6875
vt 0.906738 0.811401
vt 0.823242 0.867187
vt 0.823242 0.867187
vt 0.796875 0.790527
vt 0.867188 0.6875
vt 0.796875 0.790527
vt 0.719238 0.896423
vt 0.70166 0.896423
vt 0.796875 0.790527
vt 0.70166 0.896423
vt 0.490723 0.513184
vt 0.935547 0.475586
vt 0.867188 0.6875
vt 0.796875 0.790527
vt 0.273438 0.896423
vt 0.490723 0.513184
vt 0.2854 0.896423
vt 0.935547 0.475586
vt 0.982422 0.493652
vt 0.867188 0.6875
vt 0.273438 0.896423
vt 0.015388 0.482422
vt 0.023071 0.469727
vt 0.935547 0.475586
vt 0.796875 0.790527
vt 0.490723 0.513184
vt 0.935547 0.475586
vt 0.977051 0.478516
vt 0.982422 0.493652
vt 0.273438 0.896423
vt 0.023071 0.469727
vt 0.490723 0.513184
vt 0.925293 0.23584
vt 0.933105 0.252441
vt 0.935547 0.475586
vt 0.023071 0.469727
vt 0.058197 0.46875
vt 0.490723 0.513184
vt 0.925293 0.23584
vt 0.491699 0.235352
vt 0.882813 0.234375
vt 0.925293 0.23584
vt 0.935547 0.475586
vt 0.491699 0.235352
vt 0.058197 0.253906
vt 0.490723 0.513184
vt 0.058197 0.46875
vt 0.883789 0.009766
vt 0.882813 0.234375
vt 0.491699 0.235352
vt 0.935547 0.475586
vt 0.490723 0.513184
vt 0.491699 0.235352
vt 0.058197 0.253906
vt 0.068298 0.234863
vt 0.112 0.23584
vt 0.491699 0.235352
vt 0.492432 0.009766
vt 0.883789 0.009766
vt 0.058197 0.253906
vt 0.112 0.23584
vt 0.490723 0.513184
vt 0.114197 0.009766
vt 0.492432 0.009766
vt 0.491699 0.235352
vt 0.112 0.23584
vt 0.491699 0.235352
vt 0.490723 0.513184
vt 0.491699 0.235352
vt 0.112 0.23584
vt 0.114197 0.009766
vt 0.460693 0.996914
vt 0.013611 0.996914
vt 0.013611 0.968506
vt 0.92334 0.996914
vt 0.460693 0.996914
vt 0.460693 0.968506
vt 0.013611 0.968506
vt 0.460693 0.968506
vt 0.460693 0.996914
vt 0.460693 0.968506
vt 0.92334 0.968506
vt 0.92334 0.996914
vt 0.342041 0.996914
vt 0.133057 0.996914
vt 0.133057 0.968506
vt 0.133057 0.968506
vt 0.342041 0.968506
vt 0.342041 0.996914
vt 0.972656 0.996914
vt 0.921875 0.996914
vt 0.921875 0.968506
vt 0.921875 0.968506
vt 0.972656 0.968506
vt 0.972656 0.996914
vt 0.358887 0.996914
vt 0.343262 0.996914
vt 0.343262 0.968506
vt 0.343262 0.968506
vt 0.358887 0.968506
vt 0.358887 0.996914
vt 0.566406 0.996914
vt 0.358887 0.996914
vt 0.358887 0.968506
vt 0.358887 0.968506
vt 0.566406 0.968506
vt 0.566406 0.996914
vt 0.876465 0.996914
vt 0.827148 0.996914
vt 0.827148 0.968506
vt 0.827148 0.968506
vt 0.876465 0.968506
vt 0.876465 0.996914
vt 0.583496 0.996914
vt 0.569336 0.996914
vt 0.569336 0.968506
vt 0.569336 0.968506
vt 0.583496 0.968506
vt 0.583496 0.996914
vt 0.763672 0.996914
vt 0.583496 0.996914
vt 0.583496 0.968506
vt 0.583496 0.968506
vt 0.763672 0.968506
vt 0.763672 0.996914
vt 0.879395 0.996914
vt 0.763672 0.996914
vt 0.763672 0.968506
vt 0.763672 0.968506
vt 0.879395 0.968506
vt 0.879395 0.996914
vt 0.973633 0.996914
vt 0.950195 0.996914
vt 0.950195 0.968506
vt 0.950195 0.968506
vt 0.973633 0.968506
vt 0.973633 0.996914
vt 0.907715 0.996914
vt 0.868652 0.996914
vt 0.868652 0.968506
vt 0.868652 0.968506
vt 0.907715 0.968506
vt 0.907715 0.996914
vt 0.178589 0.996914
vt 0.042297 0.996914
vt 0.042297 0.968506
vt 0.042297 0.968506
vt 0.178589 0.968506
vt 0.178589 0.996914
vt 0.186279 0.996914
vt 0.133057 0.996914
vt 0.133057 0.968506
vt 0.133057 0.968506
vt 0.186279 0.968506
vt 0.186279 0.996914
vt 0.949219 0.996914
vt 0.933594 0.996914
vt 0.933594 0.968506
vt 0.933594 0.968506
vt 0.949219 0.968506
vt 0.949219 0.996914
vt 0.271973 0.996914
vt 0.200562 0.996914
vt 0.200562 0.968506
vt 0.200562 0.968506
vt 0.271973 0.968506
vt 0.271973 0.996914
vt 0.958496 0.996914
vt 0.859863 0.996914
vt 0.859863 0.968506
vt 0.859863 0.968506
vt 0.958496 0.968506
vt 0.958496 0.996914
vt 0.326416 0.996914
vt 0.305664 0.996914
vt 0.305664 0.968506
vt 0.305664 0.968506
vt 0.326416 0.968506
vt 0.326416 0.996914
vt 0.530273 0.996914
vt 0.17334 0.996914
vt 0.17334 0.968506
vt 0.17334 0.968506
vt 0.530273 0.968506
vt 0.530273 0.996914
vt 0.958496 0.996914
vt 0.601563 0.996914
vt 0.601563 0.968506
vt 0.601563 0.968506
vt 0.958496 0.968506
vt 0.958496 0.996914
vt 0.83252 0.996914
vt 0.818359 0.996914
vt 0.818359 0.968506
vt 0.818359 0.968506
vt 0.83252 0.968506
vt 0.83252 0.996914
vt 0.558594 0.996914
vt 0.17334 0.996914
vt 0.17334 0.968506
vt 0.17334 0.968506
vt 0.558594 0.968506
vt 0.558594 0.996914
vt 0.570313 0.996914
vt 0.558594 0.996914
vt 0.558594 0.968506
vt 0.558594 0.968506
vt 0.570313 0.968506
vt 0.570313 0.996914
vt 0.044891 0.996914
vt 0.003387 0.996914
vt 0.003387 0.968506
vt 0.003387 0.968506
vt 0.044891 0.968506
vt 0.044891 0.996914
vt 0.771484 0.996914
vt 0.571777 0.996914
vt 0.571777 0.968506
vt 0.789551 0.996914
vt 0.771484 0.996914
vt 0.771484 0.968506
vt 0.571777 0.968506
vt 0.771484 0.968506
vt 0.771484 0.996914
vt 0.771484 0.968506
vt 0.789551 0.968506
vt 0.789551 0.996914
vt 0.108459 0.996914
vt 0.056854 0.996914
vt 0.056854 0.968506
vt 0.056854 0.968506
vt 0.108459 0.968506
vt 0.108459 0.996914
vt 0.998535 0.996914
vt 0.788086 0.996914
vt 0.788086 0.968506
vt 0.788086 0.968506
vt 0.998535 0.968506
vt 0.998535 0.996914
vt 0.438965 0.995609
vt 0.16687 0.995609
vt 0.16687 0.967377
vt 0.16687 0.967377
vt 0.438965 0.967377
vt 0.438965 0.995609
vt 0.438965 0.995609
vt 0.16687 0.995609
vt 0.16687 0.967377
vt 0.16687 0.967377
vt 0.438965 0.967377
vt 0.438965 0.995609
vt 0.438965 0.995609
vt 0.16687 0.995609
vt 0.16687 0.967377
vt 0.16687 0.967377
vt 0.438965 0.967377
vt 0.438965 0.995609
vt 0.438965 0.995609
vt 0.16687 0.995609
vt 0.16687 0.967377
vt 0.16687 0.967377
vt 0.438965 0.967377
vt 0.438965 0.995609
vt 0.131836 0.779541
vt 0.117737 0.797729
vt 0.128052 0.803223
vt 0.205811 0.803223
vt 0.131836 0.779541
vt 0.185425 0.82605
vt 0.131836 0.779541
vt 0.128052 0.803223
vt 0.185425 0.82605
vt 0.175049 0.824463
vt 0.128052 0.803223
vt 0.084656 0.85437
vt 0.128052 0.803223
vt 0.175049 0.824463
vt 0.185425 0.82605
vt 0.084656 0.85437
vt 0.148804 0.856812
vt 0.175049 0.824463
vt 0.127319 0.947998
vt 0.22644 0.88739
vt 0.12262 0.721924
vt 0.12262 0.721924
vt 0.024185 0.782959
vt 0.127319 0.947998
vt 0.015625 0.778809
vt 0.026688 0.797852
vt 0.133667 0.968262
vt 0.020828 0.770874
vt 0.015625 0.778809
vt 0.117554 0.708984
vt 0.133667 0.968262
vt 0.255127 0.892822
vt 0.117554 0.708984
vt 0.015625 0.778809
vt 0.133667 0.968262
vt 0.117554 0.708984
vt 0.185791 0.778809
vt 0.183472 0.775269
vt 0.032715 0.7854
vt 0.111267 0.931152
vt 0.185791 0.778809
vt 0.10614 0.931213
vt 0.032715 0.7854
vt 0.099243 0.921143
vt 0.10614 0.931213
vt 0.185791 0.778809
vt 0.032715 0.7854
vt 0.10614 0.931213
vt 0.020828 0.783691
vt 0.127563 0.954498
vt 0.225952 0.893433
vt 0.225952 0.893433
vt 0.11908 0.7229
vt 0.020828 0.783691
vt 0.137817 0.956482
vt 0.231445 0.897949
vt 0.132935 0.697021
vt 0.126709 0.957306
vt 0.137817 0.956482
vt 0.115234 0.937927
vt 0.132935 0.697021
vt 0.011414 0.772461
vt 0.115234 0.937927
vt 0.137817 0.956482
vt 0.132935 0.697021
vt 0.115234 0.937927
vt 0.209595 0.81604
vt 0.206421 0.810791
vt 0.160767 0.807373
vt 0.135498 0.94873
vt 0.209595 0.81604
vt 0.160767 0.807373
vt 0.04245 0.824585
vt 0.135498 0.94873
vt 0.160767 0.807373
vt 0.035583 0.811768
vt 0.04245 0.824585
vt 0.039093 0.807373
vt 0.04245 0.824585
vt 0.160767 0.807373
vt 0.117432 0.805664
vt 0.04245 0.824585
vt 0.117432 0.805664
vt 0.039093 0.807373

# 372 Vertex Normals
vn 1.0 0.0 -0.0
vn 1.0 0.0 -0.0
vn 1.0 0.0 -0.0
vn -1.0 0.0 0.0
vn -1.0 0.0 0.0
vn -1.0 0.0 0.0
vn 1.0 0.0 0.0
vn 1.0 0.0 0.0
vn 1.0 0.0 0.0
vn -1.0 0.0 0.0
vn -1.0 0.0 0.0
vn -1.0 0.0 0.0
vn 0.0 -0.0 1.0
vn 0.0 -0.0 1.0
vn 0.0 -0.0 1.0
vn 0.0 -0.0 1.0
vn 0.0 -0.0 1.0
vn 0.0 -0.0 1.0
vn 0.0 -0.0 1.0
vn 0.0 -0.0 1.0
vn 0.0 -0.0 1.0
vn 0.0 -0.0 1.0
vn 0.0 0.0 1.0
vn 0.0 -0.0 1.0
vn 0.0 0.0 1.0
vn 0.0 -0.0 1.0
vn 0.0 0.0 1.0
vn 0.0 0.0 1.0
vn 0.0 0.0 1.0
vn 0.0 0.0 1.0
vn 0.0 0.0 1.0
vn 0.0 0.0 1.0
vn 0.0 0.0 1.0
vn 0.0 0.0 1.0
vn 0.0 0.0 1.0
vn 0.0 0.0 1.0
vn -0.0 0.0 1.0
vn 0.0 0.0 1.0
vn 0.0 0.0 1.0
vn 0.0 -0.0 1.0
vn 0.0 0.0 1.0
vn 0.0 0.0 1.0
vn -0.0 0.0 1.0
vn 0.0 0.0 1.0
vn 0.0 0.0 1.0
vn 0.0 -0.0 1.0
vn 0.0 -0.0 1.0
vn 0.0 -0.0 1.0
vn -0.0 0.0 1.0
vn 0.0 0.0 1.0
vn 0.0 0.0 1.0
vn -0.0 0.0 1.0
vn 0.0 0.0 1.0
vn 0.0 0.0 1.0
vn 0.0 -0.0 1.0
vn 0.0 -0.0 1.0
vn 0.0 0.0 1.0
vn -0.0 0.0 1.0
vn -0.000001 0.0 1.0
vn -0.0 0.0 1.0
vn 0.0 -0.0 1.0
vn -0.0 0.0 1.0
vn 0.0 0.0 1.0
vn -0.0 0.0 1.0
vn 0.0 0.0 1.0
vn 0.0 -0.0 1.0
vn -0.0 0.0 1.0
vn -0.0 0.0 1.0
vn 0.0 0.0 1.0
vn 0.0 0.0 1.0
vn 0.0 0.0 1.0
vn -0.0 0.0 1.0
vn 0.0 0.0 1.0
vn 0.0 -0.0 1.0
vn 0.0 0.0 1.0
vn -0.0 0.0 1.0
vn 0.0 0.0 1.0
vn 0.0 0.0 1.0
vn 0.0 0.0 1.0
vn 0.0 -0.0 1.0
vn 0.0 0.0 1.0
vn 0.0 0.0 1.0
vn 0.0 -0.0 1.0
vn 0.0 0.0 1.0
vn 0.0 0.0 1.0
vn 0.0 0.0 1.0
vn 0.0 0.0 1.0
vn 0.0 0.0 1.0
vn 0.0 -0.0 1.0
vn 0.0 0.0 1.0
vn 0.0 0.0 1.0
vn 0.0 0.0 1.0
vn 0.0 0.0 1.0
vn 0.0 0.0 1.0
vn 0.0 0.0 1.0
vn 0.0 0.0 1.0
vn 0.0 -1.0 0.0
vn 0.0 -1.0 0.0
vn 0.0 -1.0 0.0
vn -0.0 -1.0 0.0
vn 0.0 -1.0 0.0
vn -0.0 -1.0 0.0
vn 0.0 -1.0 0.0
vn -0.0 -1.0 0.0
vn 0.0 -1.0 0.0
vn -0.0 -1.0 0.0
vn -0.0 -1.0 0.0
vn -0.0 -1.0 0.0
vn 0.89905 -0.437846 -0.000001
vn 0.99998 0.006386 -0.000001
vn 0.99998 0.006386 -0.000001
vn 0.99998 0.006386 -0.000001
vn 0.467124 -0.884192 -0.0
vn 0.89905 -0.437846 -0.000001
vn 0.344305 -0.938858 -0.0
vn 0.89905 -0.437846 -0.000001
vn 0.467124 -0.884192 -0.0
vn 0.467124 -0.884192 -0.0
vn 0.658836 -0.752287 -0.0
vn 0.344305 -0.938858 -0.0
vn 0.936956 -0.349448 -0.0
vn 0.344305 -0.938858 -0.0
vn 0.658836 -0.752287 -0.0
vn 0.658836 -0.752287 -0.0
vn 0.983419 -0.181347 -0.0
vn 0.936956 -0.349448 -0.0
vn 0.894915 -0.446236 0.0
vn 0.936956 -0.349448 -0.0
vn 0.983419 -0.181347 -0.0
vn 0.983419 -0.181347 -0.0
vn 0.482922 -0.875663 0.0
vn 0.894915 -0.446236 0.0
vn 0.38354 -0.923524 0.0
vn 0.894915 -0.446236 0.0
vn 0.482922 -0.875663 0.0
vn 0.482922 -0.875663 0.0
vn 0.705228 -0.708981 0.0
vn 0.38354 -0.923524 0.0
vn 0.99486 -0.10126 0.0
vn 0.38354 -0.923524 0.0
vn 0.705228 -0.708981 0.0
vn 0.705228 -0.708981 0.0
vn 0.955339 0.295511 -0.0
vn 0.99486 -0.10126 0.0
vn 0.949828 0.312773 -0.0
vn 0.99486 -0.10126 0.0
vn 0.955339 0.295511 -0.0
vn 0.955339 0.295511 -0.0
vn 0.998448 -0.055694 -0.0
vn 0.949828 0.312773 -0.0
vn 0.92684 -0.375456 0.0
vn 0.949828 0.312773 -0.0
vn 0.998448 -0.055694 -0.0
vn 0.998448 -0.055694 -0.0
vn 0.92684 -0.375456 0.0
vn 0.92684 -0.375456 0.0
vn 0.046942 -0.998898 -0.0
vn -0.400264 -0.9164 0.0
vn -0.400264 -0.9164 0.0
vn -0.400264 -0.9164 0.0
vn 0.625798 -0.779985 -0.0
vn 0.046942 -0.998898 -0.0
vn 0.999986 -0.005221 -0.0
vn 0.046942 -0.998898 -0.0
vn 0.625798 -0.779985 -0.0
vn 0.625798 -0.779985 -0.0
vn 0.851405 0.524508 -0.0
vn 0.999986 -0.005221 -0.0
vn 0.5547 0.832051 -0.0
vn 0.999986 -0.005221 -0.0
vn 0.851405 0.524508 -0.0
vn 0.851405 0.524508 -0.0
vn 0.5547 0.83205 0.0
vn 0.5547 0.832051 -0.0
vn -0.999838 -0.018023 -0.0
vn -0.939382 0.342874 -0.0
vn -0.939381 0.342874 -0.0
vn -0.939381 0.342874 -0.0
vn -0.899093 -0.437757 0.0
vn -0.999838 -0.018023 -0.0
vn -0.906486 -0.422235 -0.0
vn -0.999838 -0.018023 -0.0
vn -0.899093 -0.437757 0.0
vn -0.899093 -0.437757 0.0
vn -0.999574 0.029186 0.0
vn -0.906486 -0.422235 -0.0
vn -0.915366 0.402624 0.0
vn -0.906486 -0.422235 -0.0
vn -0.999574 0.029186 0.0
vn -0.999574 0.029186 0.0
vn -0.915366 0.402624 0.0
vn -0.915366 0.402624 0.0
vn 0.524598 0.85135 -0.0
vn 0.729537 0.683941 -0.0
vn 0.729537 0.683941 -0.0
vn 0.729537 0.683941 -0.0
vn 0.262299 0.964987 0.0
vn 0.524598 0.85135 -0.0
vn -0.303528 0.952823 -0.0
vn 0.524598 0.85135 -0.0
vn 0.262299 0.964987 0.0
vn 0.262299 0.964987 0.0
vn -0.607055 0.794659 -0.0
vn -0.303528 0.952823 -0.0
vn -0.819617 0.572912 -0.0
vn -0.303528 0.952823 -0.0
vn -0.607055 0.794659 -0.0
vn -0.607055 0.794659 -0.0
vn -0.819617 0.572912 0.0
vn -0.819617 0.572912 -0.0
vn 0.614071 0.789251 0.0
vn 0.826738 0.562588 0.0
vn 0.826738 0.562588 0.0
vn 0.826738 0.562588 0.0
vn 0.307035 0.951698 0.0
vn 0.614071 0.789251 0.0
vn -0.286668 0.95803 0.0
vn 0.614071 0.789251 0.0
vn 0.307035 0.951698 0.0
vn 0.307035 0.951698 0.0
vn -0.573336 0.819321 0.0
vn -0.286668 0.95803 0.0
vn -0.966185 0.25785 0.0
vn -0.286668 0.95803 0.0
vn -0.573336 0.819321 0.0
vn -0.573336 0.819321 0.0
vn -0.96911 -0.246631 -0.0
vn -0.966185 0.25785 0.0
vn -0.587826 -0.808988 -0.0
vn -0.966185 0.25785 0.0
vn -0.96911 -0.246631 -0.0
vn -0.96911 -0.246631 -0.0
vn -0.311517 -0.950241 -0.0
vn -0.587826 -0.808988 -0.0
vn -0.470027 -0.882652 -0.0
vn -0.587826 -0.808988 -0.0
vn -0.311517 -0.950241 -0.0
vn -0.311517 -0.950241 -0.0
vn -0.897347 -0.441326 -0.0
vn -0.470027 -0.882652 -0.0
vn -0.981777 -0.190039 0.0
vn -0.470027 -0.882652 -0.0
vn -0.897347 -0.441326 -0.0
vn -0.61851 -0.785777 0.0
vn -0.981777 -0.190039 0.0
vn -0.924955 -0.380078 0.0
vn -0.897347 -0.441326 -0.0
vn -0.924955 -0.380078 0.0
vn -0.981777 -0.190039 0.0
vn -0.924955 -0.380078 0.0
vn -0.297672 -0.954668 0.0
vn -0.61851 -0.785777 0.0
vn 0.020614 -0.999788 0.0
vn -0.61851 -0.785777 0.0
vn -0.297672 -0.954668 0.0
vn -0.297672 -0.954668 0.0
vn 0.020614 -0.999788 0.0
vn 0.020614 -0.999788 0.0
vn -0.999919 -0.012689 -0.0
vn -0.999919 -0.012689 0.0
vn -0.999919 -0.012689 -0.0
vn -0.999919 -0.012689 -0.0
vn -0.999919 -0.012689 -0.000001
vn -0.999919 -0.012689 -0.0
vn -0.0 0.742597 -0.669738
vn -0.0 0.742597 -0.669738
vn -0.0 0.742597 -0.669738
vn -0.0 0.742597 -0.669738
vn -0.0 0.742597 -0.669738
vn -0.0 0.742597 -0.669738
vn 0.0 -1.0 0.0
vn -0.0 -1.0 0.0
vn 0.0 -1.0 0.0
vn 0.0 -1.0 0.0
vn 0.0 -1.0 0.0
vn 0.0 -1.0 0.0
vn -0.0 0.742597 -0.669738
vn -0.0 0.742597 -0.669738
vn -0.0 0.742597 -0.669738
vn -0.0 0.742597 -0.669738
vn -0.0 0.742597 -0.669738
vn -0.0 0.742597 -0.669738
vn 0.0 -1.0 0.0
vn -0.0 -1.0 0.0
vn 0.0 -1.0 0.0
vn 0.0 -1.0 0.0
vn 0.0 -1.0 0.0
vn 0.0 -1.0 0.0
vn 0.0 -0.0 -1.0
vn 0.0 -0.0 -1.0
vn 0.0 -0.0 -1.0
vn 0.0 -0.0 -1.0
vn 0.0 -0.0 -1.0
vn 0.0 -0.0 -1.0
vn 0.0 -0.0 -1.0
vn 0.0 -0.0 -1.0
vn 0.0 -0.0 -1.0
vn 0.0 -0.0 -1.0
vn 0.0 -0.0 -1.0
vn 0.0 -0.0 -1.0
vn 0.0 -0.0 -1.0
vn 0.0 -0.0 -1.0
vn 0.0 -0.0 -1.0
vn 0.0 -0.0 -1.0
vn 0.0 -0.0 -1.0
vn 0.0 -0.0 -1.0
vn 0.0 0.0 -1.0
vn -0.0 -0.0 -1.0
vn -0.0 -0.0 -1.0
vn -0.0 -0.0 -1.0
vn 0.0 -0.0 -1.0
vn 0.0 0.0 -1.0
vn 0.0 -0.0 -1.0
vn 0.0 -0.0 -1.0
vn -0.0 -0.0 -1.0
vn 0.000001 -0.0 -1.0
vn 0.0 -0.0 -1.0
vn 0.0 -0.0 -1.0
vn -0.0 -0.0 -1.0
vn -0.0 -0.0 -1.0
vn 0.0 -0.0 -1.0
vn 0.0 -0.0 -1.0
vn -0.0 -0.0 -1.0
vn 0.0 -0.0 -1.0
vn 0.0 -0.0 -1.0
vn 0.0 -0.0 -1.0
vn -0.0 -0.0 -1.0
vn 0.0 -0.0 -1.0
vn 0.0 -0.0 -1.0
vn 0.0 0.0 -1.0
vn -0.0 -0.0 -1.0
vn 0.0 -0.0 -1.0
vn 0.0 0.0 -1.0
vn 0.0 -0.0 -1.0
vn -0.0 -0.0 -1.0
vn 0.0 0.0 -1.0
vn 0.0 -0.0 -1.0
vn 0.0 -0.0 -1.0
vn -0.0 -0.0 -1.0
vn -0.0 -0.0 -1.0
vn 0.0 -0.0 -1.0
vn 0.0 -0.0 -1.0
vn -0.0 -0.0 -1.0
vn 0.0 -0.0 -1.0
vn -0.0 -0.0 -1.0
vn 0.0 -0.0 -1.0
vn -0.0 -0.0 -1.0
vn -0.0 -0.0 -1.0
vn -0.0 -0.0 -1.0
vn -0.0 -0.0 -1.0
vn -0.0 -0.0 -1.0
vn -0.0 -0.0 -1.0
vn -0.0 -0.0 -1.0
vn -0.0 -0.0 -1.0
vn 0.0 0.0 -1.0
vn 0.0 0.0 -1.0
vn 0.0 -0.0 -1.0
vn -0.0 -0.0 -1.0
vn 0.0 0.0 -1.0
vn 0.0 -0.0 -1.0
vn 0.0 -0.0 -1.0
vn -0.0 -0.0 -1.0
vn 0.0 -0.0 -1.0
vn 0.0 -0.0 -1.0
vn 0.0 -0.0 -1.0
vn 0.0 -0.0 -1.0
vn 0.0 -0.0 -1.0
vn 0.0 -0.0 -1.0
vn 0.0 -0.0 -1.0
vn 0.0 -0.0 -1.0
vn 0.0 -0.0 -1.0
vn 0.0 -0.0 -1.0

# submesh_0, 124 grouped triangles

usemtl medbuilding
o submesh_0
g submesh_0

f 58/1/1 59/2/2 60/3/3
f 61/4/4 62/5/5 63/6/6
f 64/7/7 65/8/8 66/9/9
f 67/10/10 68/11/11 69/12/12
f 1/13/13 2/14/14 3/15/15
f 1/16/16 5/17/17 6/18/18
f 1/19/19 3/20/20 5/21/21
f 3/22/22 4/23/23 5/24/24
f 26/25/25 5/26/26 4/27/27
f 4/28/28 27/29/29 26/30/30
f 27/31/31 28/32/32 29/33/33
f 27/34/34 29/35/35 14/36/36
f 13/37/37 26/38/38 27/39/39
f 16/40/40 14/41/41 20/42/42
f 13/43/43 25/44/44 26/45/45
f 16/46/46 17/47/47 18/48/48
f 13/49/49 27/50/50 14/51/51
f 13/52/52 24/53/53 25/54/54
f 16/55/55 18/56/56 14/57/57
f 11/58/58 12/59/59 13/60/60
f 18/61/61 19/62/62 14/63/63
f 11/64/64 7/65/65 15/66/66
f 11/67/67 13/68/68 7/69/69
f 22/70/70 14/71/71 19/72/72
f 21/73/73 15/74/74 7/75/75
f 13/76/76 14/77/77 7/78/78
f 22/79/79 23/80/80 8/81/81
f 7/82/82 10/83/83 21/84/84
f 22/85/85 8/86/86 14/87/87
f 9/88/88 10/89/89 7/90/90
f 8/91/91 7/92/92 14/93/93
f 7/94/94 8/95/95 9/96/96
f 10/97/97 9/98/98 30/99/99
f 21/100/100 10/101/101 31/102/102
f 30/103/103 31/104/104 10/105/105
f 31/106/106 32/107/107 21/108/108
f 15/109/109 21/110/110 32/111/111
f 32/112/112 33/113/113 15/114/114
f 11/115/115 15/116/116 33/117/117
f 33/118/118 34/119/119 11/120/120
f 12/121/121 11/122/122 34/123/123
f 34/124/124 35/125/125 12/126/126
f 13/127/127 12/128/128 35/129/129
f 35/130/130 36/131/131 13/132/132
f 24/133/133 13/134/134 36/135/135
f 36/136/136 37/137/137 24/138/138
f 25/139/139 24/140/140 37/141/141
f 37/142/142 38/143/143 25/144/144
f 26/145/145 25/146/146 38/147/147
f 38/148/148 39/149/149 26/150/150
f 5/151/151 26/152/152 39/153/153
f 39/154/154 40/155/155 5/156/156
f 6/157/157 5/158/158 40/159/159
f 40/160/160 41/161/161 6/162/162
f 1/163/163 6/164/164 41/165/165
f 41/166/166 42/167/167 1/168/168
f 2/169/169 1/170/170 42/171/171
f 42/172/172 43/173/173 2/174/174
f 3/175/175 2/176/176 43/177/177
f 43/178/178 44/179/179 3/180/180
f 4/181/181 3/182/182 44/183/183
f 44/184/184 45/185/185 4/186/186
f 27/187/187 4/188/188 45/189/189
f 45/190/190 46/191/191 27/192/192
f 28/193/193 27/194/194 46/195/195
f 46/196/196 47/197/197 28/198/198
f 29/199/199 28/200/200 47/201/201
f 47/202/202 48/203/203 29/204/204
f 14/205/205 29/206/206 48/207/207
f 48/208/208 49/209/209 14/210/210
f 20/211/211 14/212/212 49/213/213
f 49/214/214 50/215/215 20/216/216
f 16/217/217 20/218/218 50/219/219
f 50/220/220 51/221/221 16/222/222
f 17/223/223 16/224/224 51/225/225
f 51/226/226 52/227/227 17/228/228
f 18/229/229 17/230/230 52/231/231
f 52/232/232 53/233/233 18/234/234
f 19/235/235 18/236/236 53/237/237
f 53/238/238 54/239/239 19/240/240
f 22/241/241 19/242/242 54/243/243
f 23/244/244 22/245/245 55/246/246
f 54/247/247 55/248/248 22/249/249
f 55/250/250 56/251/251 23/252/252
f 8/253/253 23/254/254 56/255/255
f 56/256/256 57/257/257 8/258/258
f 9/259/259 8/260/260 57/261/261
f 57/262/262 30/263/263 9/264/264
f 63/265/265 62/266/266 60/267/267
f 60/268/268 59/269/269 63/270/270
f 61/271/271 63/272/272 59/273/273
f 59/274/274 58/275/275 61/276/276
f 69/277/277 68/278/278 66/279/279
f 66/280/280 65/281/281 69/282/282
f 67/283/283 69/284/284 65/285/285
f 65/286/286 64/287/287 67/288/288
f 42/289/289 41/290/290 40/291/291
f 43/292/292 42/293/293 44/294/294
f 42/295/295 40/296/296 44/297/297
f 45/298/298 40/299/299 39/300/300
f 40/301/301 45/302/302 44/303/303
f 39/304/304 46/305/305 45/306/306
f 30/307/307 57/308/308 70/309/309
f 70/310/310 31/311/311 30/312/312
f 34/313/313 33/314/314 70/315/315
f 35/316/316 34/317/317 36/318/318
f 70/319/319 49/320/320 36/321/321
f 34/322/322 70/323/323 36/324/324
f 51/325/325 50/326/326 49/327/327
f 52/328/328 51/329/329 53/330/330
f 49/331/331 54/332/332 53/333/333
f 51/334/334 49/335/335 53/336/336
f 32/337/337 31/338/338 70/339/339
f 70/340/340 33/341/341 32/342/342
f 55/343/343 54/344/344 49/345/345
f 56/346/346 55/347/347 57/348/348
f 49/349/349 70/350/350 57/351/351
f 55/352/352 49/353/353 57/354/354
f 48/355/355 47/356/356 46/357/357
f 49/358/358 48/359/359 46/360/360
f 36/361/361 49/362/362 46/363/363
f 37/364/364 36/365/365 38/366/366
f 36/367/367 46/368/368 39/369/369
f 36/370/370 39/371/371 38/372/372
